<svg width="18" height="16" viewBox="0 0 18 16" fill="none" xmlns="http://www.w3.org/2000/svg">
<path fill-rule="evenodd" clip-rule="evenodd" d="M0 8.01191C0 3.70497 2.76517 0 8.02053 0C10.0096 0 11.5862 0.580322 13.2537 1.98782C13.8702 2.54432 13.9389 3.52741 13.3225 4.15104C12.706 4.68805 11.768 4.61876 11.2203 4.08391C10.2823 3.12464 9.32439 2.85614 8.02053 2.85614C4.50143 2.85614 2.81173 5.29003 2.81173 8.01191C2.81173 10.7793 4.47926 13.3236 8.02053 13.3236C9.32439 13.3236 10.5351 12.8104 11.5862 11.8944C12.2936 11.3596 13.2759 11.6259 13.6883 12.1629C14.0542 12.6523 14.2361 13.4795 13.4378 14.259C11.8368 15.7098 9.91867 16 8.02053 16C2.4902 16 0 12.3189 0 8.01191Z" fill="#404357"/>
<rect x="15" y="13" width="3" height="3" rx="1.5" fill="#404357"/>
</svg>
