<svg width="130" height="16" viewBox="0 0 130 16" fill="none" xmlns="http://www.w3.org/2000/svg">
<path fill-rule="evenodd" clip-rule="evenodd" d="M79.7736 15.9918C75.702 16.169 71.4766 13.4624 71.4766 8.07276C71.4766 2.66175 75.702 0 79.7736 0C83.6232 0.19851 87.65 2.86026 87.65 8.07276C87.65 13.2874 83.6232 15.9918 79.7736 15.9918ZM0 8.05398C0 3.80841 2.66248 0.15625 7.7227 0.15625C9.6379 0.15625 11.156 0.728302 12.7616 2.11574C13.3551 2.66431 13.4213 3.63338 12.8278 4.24813C12.2342 4.77749 11.331 4.70918 10.8037 4.18196C9.90051 3.23636 8.97815 2.97168 7.7227 2.97168C4.33428 2.97168 2.70732 5.37088 2.70732 8.05398C2.70732 10.7819 4.31293 13.29 7.7227 13.29C8.97815 13.29 10.1439 12.7841 11.156 11.8812C11.8371 11.3539 12.7829 11.6165 13.18 12.1459C13.5323 12.6283 13.7074 13.4436 12.9388 14.2121C11.3972 15.6422 9.55036 15.9282 7.7227 15.9282C2.39773 15.9282 0 12.2995 0 8.05398ZM18.8022 14.338C18.8022 16.2527 15.875 16.3188 15.875 14.3828V1.88735C15.875 1.11893 16.4707 0.546875 17.1966 0.546875H23.049C28.6366 0.546875 29.781 8.02624 25.1179 9.89394L28.043 13.4586C29.1874 15.1534 26.8986 16.7799 25.5791 15.1086L22.2568 10.3571H18.8022V14.338ZM31.9823 1.18831C30.8378 -0.525709 28.4615 1.25448 29.5183 2.66326L34.3159 9.8566V14.3882C34.3159 16.3007 37.2197 16.3455 37.2197 14.4095V9.8566L42.1924 2.66326C43.3368 1.18831 40.8942 -0.416849 39.7284 1.18831L35.834 6.93017L31.9823 1.18831ZM44.3633 1.87134C44.3633 1.14347 44.9355 0.351562 45.8579 0.351562H50.9416C53.8026 0.351562 56.3754 2.26623 56.3754 5.93974C56.3754 9.41474 53.8026 11.3507 50.9416 11.3507H47.267V14.2537C47.267 15.2228 46.65 15.7735 45.8579 15.7735C45.1319 15.7735 44.3633 15.2228 44.3633 14.2537V1.87134ZM58.87 3.29981H62.7196V14.4079C62.7196 16.3652 65.6234 16.3225 65.6234 14.4079V3.29981H69.2765C71.2344 3.29981 71.2344 0.484375 69.2765 0.484375H58.87C56.9548 0.484375 56.9548 3.29981 58.87 3.29981ZM23.0495 7.83004H18.8027V3.21094H23.0495C26.0856 3.21094 25.9105 7.83004 23.0495 7.83004ZM79.5286 2.85938C77.0647 2.85938 74.3809 4.59687 74.3809 8.07187C74.3809 11.5255 77.0647 13.2865 79.5286 13.2865C82.0587 13.2865 84.766 11.5255 84.766 8.07187C84.766 4.59687 82.0587 2.85938 79.5286 2.85938ZM47.2656 8.60218V3.125H50.9402C52.4134 3.125 53.5813 4.40144 53.5813 5.94043C53.5813 7.30439 52.4134 8.60218 50.9402 8.60218H47.2656ZM90.3242 1.87134C90.3242 1.14347 90.8964 0.351562 91.8188 0.351562H96.9025C99.7635 0.351562 102.336 2.26623 102.336 5.93974C102.336 9.41474 99.7635 11.3507 96.9025 11.3507H93.228V14.2537C93.228 15.2228 92.6109 15.7735 91.8188 15.7735C91.0929 15.7735 90.3242 15.2228 90.3242 14.2537V1.87134ZM102.383 13.6603C101.943 14.5846 102.383 15.3765 103.088 15.7735C103.88 15.9272 104.693 15.7735 105.046 15.0243L105.991 13.0883H114.111L115.078 15.0243C115.871 16.7404 118.533 15.3765 117.632 13.6603L111.427 1.32066C110.877 0.110389 109.292 0.155214 108.699 1.32066L102.383 13.6603ZM117.028 2.66326C115.971 1.25448 118.348 -0.525709 119.492 1.18831L123.344 6.93017L127.238 1.18831C128.404 -0.416849 130.847 1.18831 129.702 2.66326L124.729 9.8566V14.4095C124.729 16.3455 121.826 16.3007 121.826 14.3882V9.8566L117.028 2.66326ZM96.9011 3.125C98.3743 3.125 99.5401 4.40144 99.5401 5.94043C99.5401 7.30439 98.3743 8.60218 96.9011 8.60218H93.2266V3.125H96.9011ZM110.063 4.75L112.548 10.1824H107.355L110.063 4.75Z" fill="#404357"/>
</svg>
