<svg width="24" height="24" viewBox="0 0 24 24" fill="none" xmlns="http://www.w3.org/2000/svg">
<path d="M1 5.4C1 2.96995 2.96995 1 5.4 1H7C8.65685 1 10 2.34315 10 4V5C10 6.65685 8.65685 8 7 8H3.6C2.16406 8 1 6.83594 1 5.4Z" stroke="#6B7192" stroke-width="2"/>
<path d="M14 4C14 2.34315 15.3431 1 17 1H18C20.7614 1 23 3.23858 23 6V9C23 10.6569 21.6569 12 20 12H17C15.3431 12 14 10.6569 14 9V4Z" stroke="#6B7192" stroke-width="2"/>
<path d="M1 15C1 13.3431 2.34315 12 4 12H7C8.65685 12 10 13.3431 10 15V20C10 21.6569 8.65685 23 7 23H6C3.23858 23 1 20.7614 1 18V15Z" stroke="#6B7192" stroke-width="2"/>
<path d="M14 19C14 17.3431 15.3431 16 17 16H20.4C21.8359 16 23 17.1641 23 18.6C23 21.0301 21.0301 23 18.6 23H17C15.3431 23 14 21.6569 14 20V19Z" stroke="#6B7192" stroke-width="2"/>
</svg>
